<svg xmlns="http://www.w3.org/2000/svg" viewBox="0 0 1200 950" font-family="Segoe UI, Arial, sans-serif">
  <defs>
    <filter id="shadow" x="-5%" y="-5%" width="115%" height="115%">
      <feDropShadow dx="2" dy="2" stdDeviation="3" flood-color="#00000022"/>
    </filter>
    <linearGradient id="headerGrad" x1="0" y1="0" x2="0" y2="1">
      <stop offset="0%" stop-color="#1e293b"/>
      <stop offset="100%" stop-color="#334155"/>
    </linearGradient>
    <linearGradient id="headerNew" x1="0" y1="0" x2="0" y2="1">
      <stop offset="0%" stop-color="#059669"/>
      <stop offset="100%" stop-color="#047857"/>
    </linearGradient>
  </defs>

  <!-- Background -->
  <rect width="1200" height="950" fill="#f8fafc" rx="8"/>

  <!-- Title -->
  <text x="600" y="35" text-anchor="middle" font-size="20" font-weight="bold" fill="#1e293b">Database Entity Relationship Diagram</text>
  <text x="600" y="55" text-anchor="middle" font-size="12" fill="#64748b">DMG Movie Ticket Booking System — All tables use FK ID columns (no JPA relationships)</text>

  <!-- ==================== ENTITY BOXES ==================== -->

  <!-- City -->
  <g transform="translate(60, 80)" filter="url(#shadow)">
    <rect width="160" height="100" rx="6" fill="white" stroke="#cbd5e1" stroke-width="1.5"/>
    <rect width="160" height="28" rx="6" fill="url(#headerGrad)"/>
    <rect y="24" width="160" height="6" fill="url(#headerGrad)"/>
    <text x="80" y="18" text-anchor="middle" font-size="12" font-weight="bold" fill="white">cities</text>
    <text x="10" y="46" font-size="10" fill="#64748b">PK id (BIGINT)</text>
    <text x="10" y="62" font-size="10" fill="#475569">name VARCHAR(255) UNIQUE</text>
    <text x="10" y="78" font-size="10" fill="#64748b">created_at, updated_at</text>
  </g>

  <!-- Theater -->
  <g transform="translate(310, 80)" filter="url(#shadow)">
    <rect width="180" height="115" rx="6" fill="white" stroke="#cbd5e1" stroke-width="1.5"/>
    <rect width="180" height="28" rx="6" fill="url(#headerGrad)"/>
    <rect y="24" width="180" height="6" fill="url(#headerGrad)"/>
    <text x="90" y="18" text-anchor="middle" font-size="12" font-weight="bold" fill="white">theaters</text>
    <text x="10" y="46" font-size="10" fill="#64748b">PK id (BIGINT)</text>
    <text x="10" y="62" font-size="10" fill="#475569">name VARCHAR(100)</text>
    <text x="10" y="78" font-size="10" fill="#475569">location VARCHAR(255)</text>
    <text x="10" y="94" font-size="10" fill="#0ea5e9">FK city_id (BIGINT)</text>
    <text x="10" y="108" font-size="10" fill="#64748b">created_at, updated_at</text>
  </g>

  <!-- Screen -->
  <g transform="translate(590, 80)" filter="url(#shadow)">
    <rect width="180" height="115" rx="6" fill="white" stroke="#cbd5e1" stroke-width="1.5"/>
    <rect width="180" height="28" rx="6" fill="url(#headerGrad)"/>
    <rect y="24" width="180" height="6" fill="url(#headerGrad)"/>
    <text x="90" y="18" text-anchor="middle" font-size="12" font-weight="bold" fill="white">screens</text>
    <text x="10" y="46" font-size="10" fill="#64748b">PK id (BIGINT)</text>
    <text x="10" y="62" font-size="10" fill="#475569">name VARCHAR(100)</text>
    <text x="10" y="78" font-size="10" fill="#475569">total_seats INTEGER</text>
    <text x="10" y="94" font-size="10" fill="#0ea5e9">FK theater_id (BIGINT)</text>
    <text x="10" y="108" font-size="10" fill="#64748b">created_at, updated_at</text>
  </g>

  <!-- Seat -->
  <g transform="translate(930, 80)" filter="url(#shadow)">
    <rect width="190" height="130" rx="6" fill="white" stroke="#cbd5e1" stroke-width="1.5"/>
    <rect width="190" height="28" rx="6" fill="url(#headerGrad)"/>
    <rect y="24" width="190" height="6" fill="url(#headerGrad)"/>
    <text x="95" y="18" text-anchor="middle" font-size="12" font-weight="bold" fill="white">seats</text>
    <text x="10" y="46" font-size="10" fill="#64748b">PK id (BIGINT)</text>
    <text x="10" y="62" font-size="10" fill="#475569">row_label VARCHAR(10)</text>
    <text x="10" y="78" font-size="10" fill="#475569">seat_number INTEGER</text>
    <text x="10" y="94" font-size="10" fill="#475569">seat_type VARCHAR(10)</text>
    <text x="10" y="110" font-size="10" fill="#0ea5e9">FK screen_id (BIGINT)</text>
    <text x="10" y="124" font-size="10" fill="#64748b">created_at, updated_at</text>
  </g>

  <!-- Movie (NEW) -->
  <g transform="translate(60, 280)" filter="url(#shadow)">
    <rect width="210" height="145" rx="6" fill="white" stroke="#6ee7b7" stroke-width="2"/>
    <rect width="210" height="28" rx="6" fill="url(#headerNew)"/>
    <rect y="24" width="210" height="6" fill="url(#headerNew)"/>
    <text x="105" y="18" text-anchor="middle" font-size="12" font-weight="bold" fill="white">movies</text>
    <text x="10" y="46" font-size="10" fill="#64748b">PK id (BIGINT)</text>
    <text x="10" y="62" font-size="10" fill="#475569">title VARCHAR(255)</text>
    <text x="10" y="78" font-size="10" fill="#475569">description TEXT</text>
    <text x="10" y="94" font-size="10" fill="#475569">genre VARCHAR(100)</text>
    <text x="10" y="110" font-size="10" fill="#475569">duration_minutes INTEGER</text>
    <text x="10" y="126" font-size="10" fill="#475569">language, release_date, poster_url</text>
    <text x="10" y="142" font-size="10" fill="#64748b">created_at, updated_at</text>
  </g>
  <rect x="70" y="270" width="40" height="16" rx="3" fill="#059669"/>
  <text x="90" y="282" text-anchor="middle" font-size="8" font-weight="bold" fill="white">NEW</text>

  <!-- Show (updated with movie_id) -->
  <g transform="translate(400, 280)" filter="url(#shadow)">
    <rect width="230" height="145" rx="6" fill="white" stroke="#cbd5e1" stroke-width="1.5"/>
    <rect width="230" height="28" rx="6" fill="url(#headerGrad)"/>
    <rect y="24" width="230" height="6" fill="url(#headerGrad)"/>
    <text x="115" y="18" text-anchor="middle" font-size="12" font-weight="bold" fill="white">shows</text>
    <text x="10" y="46" font-size="10" fill="#64748b">PK id (BIGINT)</text>
    <text x="10" y="62" font-size="10" fill="#0ea5e9">FK movie_id (BIGINT)</text>
    <text x="10" y="78" font-size="10" fill="#475569">start_time DATETIME</text>
    <text x="10" y="94" font-size="10" fill="#475569">end_time DATETIME</text>
    <text x="10" y="110" font-size="10" fill="#475569">base_price DECIMAL(10,2)</text>
    <text x="10" y="126" font-size="10" fill="#0ea5e9">FK screen_id (BIGINT)</text>
    <text x="10" y="142" font-size="10" fill="#64748b">created_at, updated_at</text>
  </g>

  <!-- User -->
  <g transform="translate(750, 280)" filter="url(#shadow)">
    <rect width="200" height="145" rx="6" fill="white" stroke="#cbd5e1" stroke-width="1.5"/>
    <rect width="200" height="28" rx="6" fill="url(#headerGrad)"/>
    <rect y="24" width="200" height="6" fill="url(#headerGrad)"/>
    <text x="100" y="18" text-anchor="middle" font-size="12" font-weight="bold" fill="white">users</text>
    <text x="10" y="46" font-size="10" fill="#64748b">PK id (BIGINT)</text>
    <text x="10" y="62" font-size="10" fill="#475569">username VARCHAR(50) UNIQUE</text>
    <text x="10" y="78" font-size="10" fill="#475569">email VARCHAR(100) UNIQUE</text>
    <text x="10" y="94" font-size="10" fill="#475569">password VARCHAR(255)</text>
    <text x="10" y="110" font-size="10" fill="#475569">full_name VARCHAR(100)</text>
    <text x="10" y="126" font-size="10" fill="#475569">role VARCHAR(20)</text>
    <text x="10" y="142" font-size="10" fill="#64748b">created_at, updated_at</text>
  </g>

  <!-- Booking -->
  <g transform="translate(110, 510)" filter="url(#shadow)">
    <rect width="240" height="175" rx="6" fill="white" stroke="#cbd5e1" stroke-width="1.5"/>
    <rect width="240" height="28" rx="6" fill="url(#headerGrad)"/>
    <rect y="24" width="240" height="6" fill="url(#headerGrad)"/>
    <text x="120" y="18" text-anchor="middle" font-size="12" font-weight="bold" fill="white">bookings</text>
    <text x="10" y="46" font-size="10" fill="#64748b">PK id (BIGINT)</text>
    <text x="10" y="62" font-size="10" fill="#0ea5e9">FK user_id (BIGINT)</text>
    <text x="10" y="78" font-size="10" fill="#0ea5e9">FK show_id (BIGINT)</text>
    <text x="10" y="94" font-size="10" fill="#475569">status VARCHAR(20)</text>
    <text x="10" y="110" font-size="10" fill="#475569">total_amount DECIMAL(10,2)</text>
    <text x="10" y="126" font-size="10" fill="#475569">hold_expires_at DATETIME</text>
    <text x="10" y="142" font-size="10" fill="#475569">version INTEGER (Optimistic Lock)</text>
    <text x="10" y="158" font-size="10" fill="#0ea5e9">FK discount_code_id (BIGINT)</text>
    <text x="10" y="174" font-size="10" fill="#64748b">created_at, updated_at</text>
  </g>

  <!-- BookingSeat -->
  <g transform="translate(480, 520)" filter="url(#shadow)">
    <rect width="190" height="115" rx="6" fill="white" stroke="#cbd5e1" stroke-width="1.5"/>
    <rect width="190" height="28" rx="6" fill="url(#headerGrad)"/>
    <rect y="24" width="190" height="6" fill="url(#headerGrad)"/>
    <text x="95" y="18" text-anchor="middle" font-size="12" font-weight="bold" fill="white">booking_seats</text>
    <text x="10" y="46" font-size="10" fill="#64748b">PK id (BIGINT)</text>
    <text x="10" y="62" font-size="10" fill="#0ea5e9">FK booking_id (BIGINT)</text>
    <text x="10" y="78" font-size="10" fill="#0ea5e9">FK seat_id (BIGINT)</text>
    <text x="10" y="94" font-size="10" fill="#475569">price DECIMAL(10,2)</text>
    <text x="10" y="108" font-size="10" fill="#64748b">created_at, updated_at</text>
  </g>

  <!-- PricingTier -->
  <g transform="translate(780, 520)" filter="url(#shadow)">
    <rect width="200" height="130" rx="6" fill="white" stroke="#cbd5e1" stroke-width="1.5"/>
    <rect width="200" height="28" rx="6" fill="url(#headerGrad)"/>
    <rect y="24" width="200" height="6" fill="url(#headerGrad)"/>
    <text x="100" y="18" text-anchor="middle" font-size="12" font-weight="bold" fill="white">pricing_tiers</text>
    <text x="10" y="46" font-size="10" fill="#64748b">PK id (BIGINT)</text>
    <text x="10" y="62" font-size="10" fill="#475569">name VARCHAR(255) UNIQUE</text>
    <text x="10" y="78" font-size="10" fill="#475569">seat_type VARCHAR(10)</text>
    <text x="10" y="94" font-size="10" fill="#475569">weekday_price DECIMAL(10,2)</text>
    <text x="10" y="110" font-size="10" fill="#475569">weekend_price DECIMAL(10,2)</text>
    <text x="10" y="126" font-size="10" fill="#64748b">created_at, updated_at</text>
  </g>

  <!-- ShowPricingTier -->
  <g transform="translate(480, 700)" filter="url(#shadow)">
    <rect width="220" height="100" rx="6" fill="white" stroke="#8b5cf6" stroke-width="1.5"/>
    <rect width="220" height="28" rx="6" fill="#7c3aed"/>
    <rect y="24" width="220" height="6" fill="#7c3aed"/>
    <text x="110" y="18" text-anchor="middle" font-size="12" font-weight="bold" fill="white">show_pricing_tiers</text>
    <text x="10" y="46" font-size="10" fill="#64748b">PK id (BIGINT)</text>
    <text x="10" y="62" font-size="10" fill="#0ea5e9">FK show_id (BIGINT)</text>
    <text x="10" y="78" font-size="10" fill="#0ea5e9">FK pricing_tier_id (BIGINT)</text>
    <text x="10" y="94" font-size="10" fill="#64748b">created_at, updated_at</text>
  </g>

  <!-- DiscountCode -->
  <g transform="translate(55, 770)" filter="url(#shadow)">
    <rect width="200" height="130" rx="6" fill="white" stroke="#cbd5e1" stroke-width="1.5"/>
    <rect width="200" height="28" rx="6" fill="url(#headerGrad)"/>
    <rect y="24" width="200" height="6" fill="url(#headerGrad)"/>
    <text x="100" y="18" text-anchor="middle" font-size="12" font-weight="bold" fill="white">discount_codes</text>
    <text x="10" y="46" font-size="10" fill="#64748b">PK id (BIGINT)</text>
    <text x="10" y="62" font-size="10" fill="#475569">code VARCHAR(50) UNIQUE</text>
    <text x="10" y="78" font-size="10" fill="#475569">discount_amount DECIMAL(10,2)</text>
    <text x="10" y="94" font-size="10" fill="#475569">active BOOLEAN</text>
    <text x="10" y="110" font-size="10" fill="#475569">used BOOLEAN</text>
    <text x="10" y="126" font-size="10" fill="#64748b">created_at, updated_at</text>
  </g>

  <!-- RefundPolicy -->
  <g transform="translate(370, 770)" filter="url(#shadow)">
    <rect width="200" height="115" rx="6" fill="white" stroke="#cbd5e1" stroke-width="1.5"/>
    <rect width="200" height="28" rx="6" fill="url(#headerGrad)"/>
    <rect y="24" width="200" height="6" fill="url(#headerGrad)"/>
    <text x="100" y="18" text-anchor="middle" font-size="12" font-weight="bold" fill="white">refund_policies</text>
    <text x="10" y="46" font-size="10" fill="#64748b">PK id (BIGINT)</text>
    <text x="10" y="62" font-size="10" fill="#475569">name VARCHAR(255) UNIQUE</text>
    <text x="10" y="78" font-size="10" fill="#475569">hours_before_show INTEGER</text>
    <text x="10" y="94" font-size="10" fill="#475569">refund_percentage INTEGER</text>
    <text x="10" y="108" font-size="10" fill="#64748b">created_at, updated_at</text>
  </g>

  <!-- ==================== RELATIONSHIP LINES ==================== -->

  <!-- City -> Theater (1 to many) -->
  <line x1="220" y1="130" x2="305" y2="130" stroke="#64748b" stroke-width="1.5" stroke-dasharray="5,3"/>
  <text x="263" y="125" text-anchor="middle" font-size="9" fill="#64748b">city_id</text>
  <text x="263" y="142" text-anchor="middle" font-size="9" fill="#0ea5e9">1 ─── *</text>

  <!-- Theater -> Screen (1 to many) -->
  <line x1="490" y1="130" x2="585" y2="130" stroke="#64748b" stroke-width="1.5" stroke-dasharray="5,3"/>
  <text x="538" y="125" text-anchor="middle" font-size="9" fill="#64748b">theater_id</text>
  <text x="538" y="142" text-anchor="middle" font-size="9" fill="#0ea5e9">1 ─── *</text>

  <!-- Screen -> Seat (1 to many) -->
  <line x1="770" y1="130" x2="925" y2="130" stroke="#64748b" stroke-width="1.5" stroke-dasharray="5,3"/>
  <text x="848" y="125" text-anchor="middle" font-size="9" fill="#64748b">screen_id</text>
  <text x="848" y="142" text-anchor="middle" font-size="9" fill="#0ea5e9">1 ─── *</text>

  <!-- Movie -> Show (1 to many) - NEW -->
  <line x1="270" y1="352" x2="395" y2="352" stroke="#10b981" stroke-width="2" stroke-dasharray="5,3"/>
  <text x="333" y="347" text-anchor="middle" font-size="9" fill="#059669">movie_id</text>
  <text x="333" y="364" text-anchor="middle" font-size="9" fill="#059669">1 ─── *</text>

  <!-- Screen -> Show (1 to many) -->
  <line x1="720" y1="195" x2="515" y2="275" stroke="#64748b" stroke-width="1.5" stroke-dasharray="5,3"/>
  <text x="618" y="230" text-anchor="middle" font-size="9" fill="#64748b">screen_id</text>
  <text x="618" y="244" text-anchor="middle" font-size="9" fill="#0ea5e9">1 ─── *</text>

  <!-- User -> Booking (1 to many) -->
  <line x1="850" y1="425" x2="350" y2="505" stroke="#64748b" stroke-width="1.5" stroke-dasharray="5,3"/>
  <text x="600" y="460" text-anchor="middle" font-size="9" fill="#64748b">user_id</text>
  <text x="600" y="474" text-anchor="middle" font-size="9" fill="#0ea5e9">1 ─── *</text>

  <!-- Show -> Booking (1 to many) -->
  <line x1="510" y1="425" x2="350" y2="505" stroke="#64748b" stroke-width="1.5" stroke-dasharray="5,3"/>
  <text x="430" y="460" text-anchor="middle" font-size="9" fill="#64748b">show_id</text>
  <text x="430" y="474" text-anchor="middle" font-size="9" fill="#0ea5e9">1 ─── *</text>

  <!-- Booking -> BookingSeat (1 to many) -->
  <line x1="350" y1="597" x2="475" y2="565" stroke="#64748b" stroke-width="1.5" stroke-dasharray="5,3"/>
  <text x="413" y="587" text-anchor="middle" font-size="9" fill="#64748b">booking_id</text>
  <text x="413" y="600" text-anchor="middle" font-size="9" fill="#0ea5e9">1 ─── *</text>

  <!-- Seat -> BookingSeat (1 to many) -->
  <line x1="1025" y1="210" x2="670" y2="565" stroke="#64748b" stroke-width="1.5" stroke-dasharray="5,3"/>
  <text x="850" y="380" text-anchor="middle" font-size="9" fill="#64748b">seat_id</text>
  <text x="850" y="394" text-anchor="middle" font-size="9" fill="#0ea5e9">1 ─── *</text>

  <!-- Show -> ShowPricingTier (1 to many) -->
  <line x1="515" y1="425" x2="590" y2="695" stroke="#64748b" stroke-width="1.5" stroke-dasharray="5,3"/>
  <text x="553" y="555" text-anchor="middle" font-size="9" fill="#64748b">show_id</text>
  <text x="553" y="569" text-anchor="middle" font-size="9" fill="#0ea5e9">1 ─── *</text>

  <!-- PricingTier -> ShowPricingTier (1 to many) -->
  <line x1="880" y1="650" x2="700" y2="745" stroke="#64748b" stroke-width="1.5" stroke-dasharray="5,3"/>
  <text x="790" y="698" text-anchor="middle" font-size="9" fill="#64748b">pricing_tier_id</text>
  <text x="790" y="712" text-anchor="middle" font-size="9" fill="#0ea5e9">1 ─── *</text>

  <!-- DiscountCode -> Booking (1 to many) -->
  <line x1="155" y1="770" x2="230" y2="685" stroke="#64748b" stroke-width="1.5" stroke-dasharray="5,3"/>
  <text x="193" y="728" text-anchor="middle" font-size="9" fill="#64748b">discount_code_id</text>
  <text x="193" y="742" text-anchor="middle" font-size="9" fill="#0ea5e9">1 ─── *</text>

  <!-- Legend -->
  <g transform="translate(700, 770)">
    <rect width="460" height="140" rx="6" fill="white" stroke="#e2e8f0" stroke-width="1"/>
    <text x="230" y="20" text-anchor="middle" font-size="12" font-weight="bold" fill="#1e293b">Legend</text>
    <rect x="15" y="32" width="12" height="12" rx="2" fill="#0ea5e9"/>
    <text x="33" y="43" font-size="10" fill="#475569">Foreign Key (FK) column references PK of related table</text>
    <rect x="15" y="52" width="12" height="12" rx="2" fill="#64748b"/>
    <text x="33" y="63" font-size="10" fill="#475569">Primary Key (PK) column</text>
    <rect x="15" y="72" width="12" height="12" rx="2" fill="#059669"/>
    <text x="33" y="83" font-size="10" fill="#475569">New: movies table (replaces inline movie_title in shows)</text>
    <text x="15" y="105" font-size="10" fill="#0ea5e9">1 ─── *</text>
    <text x="50" y="105" font-size="10" fill="#475569">One-to-Many relationship (via FK)</text>
    <text x="15" y="122" font-size="10" fill="#059669">1 ─── *</text>
    <text x="50" y="122" font-size="10" fill="#475569">New: movies → shows relationship (via movie_id FK)</text>
  </g>
</svg>
